# xmcd CD database file
# Copyright (C) 1993-1996 Ti Kan
#
# Track frame offsets:
#	150
#	13445
#	31845
#	50510
#	67115
#	91477
#	115380
#	141420
#	163495
#
# Disc length: 2414 seconds
#
# Revision: 1
# Processed by: cddbd v1.4b41PL1 Copyright (c) Steve Scherf et al.
# Submitted via: CDValet v3.31 - Copyright (c) 1997 Greg Leichner
#
DISCID=89096c09
DTITLE=Johan Walin BluesBand - Live at Antons
DYEAR=1900
DGENRE=
TTITLE0=Don't Leave Me Baby
TTITLE1=I've Got My Questionary
TTITLE2=Don't Think About It Baby
TTITLE3=Rollin' Man
TTITLE4=She's Dynamite
TTITLE5=Let Me Go Home Whiskey
TTITLE6=Living Soul
TTITLE7=Guilty
TTITLE8=Johan's Boogie
EXTD=
EXTT0=
EXTT1=
EXTT2=
EXTT3=
EXTT4=
EXTT5=
EXTT6=
EXTT7=
EXTT8=
PLAYORDER=
